<mxfile host="app.diagrams.net" modified="2024-05-11T00:27:01.187Z" agent="Mozilla/5.0 (Windows NT 10.0; Win64; x64) AppleWebKit/537.36 (KHTML, like Gecko) Chrome/124.0.0.0 Safari/537.36" etag="RSAapQTyM7CDUNlR7B4v" version="24.3.1" type="github">
  <diagram name="Page-1" id="RcO1XSA03AVoZk9PwAQP">
    <mxGraphModel dx="794" dy="546" grid="1" gridSize="10" guides="1" tooltips="1" connect="1" arrows="1" fold="1" page="1" pageScale="1" pageWidth="850" pageHeight="1100" math="0" shadow="0">
      <root>
        <mxCell id="0" />
        <mxCell id="1" parent="0" />
        <mxCell id="mb2Tgb36mY0pT5_rwjz1-1" value="" style="rounded=1;whiteSpace=wrap;html=1;absoluteArcSize=1;arcSize=14;strokeWidth=2;" vertex="1" parent="1">
          <mxGeometry x="260" y="60" width="270" height="590" as="geometry" />
        </mxCell>
        <mxCell id="mb2Tgb36mY0pT5_rwjz1-7" value="&lt;b&gt;&lt;font style=&quot;font-size: 17px;&quot;&gt;Exploratory Data Analysis&lt;/font&gt;&lt;/b&gt;" style="html=1;strokeWidth=2;shape=manualInput;whiteSpace=wrap;rounded=1;size=0;arcSize=11;" vertex="1" parent="1">
          <mxGeometry x="313" y="254" width="160" height="40" as="geometry" />
        </mxCell>
        <mxCell id="mb2Tgb36mY0pT5_rwjz1-17" value="&lt;b&gt;&lt;font style=&quot;font-size: 17px;&quot;&gt;Feature Selection&lt;/font&gt;&lt;/b&gt;" style="html=1;strokeWidth=2;shape=manualInput;whiteSpace=wrap;rounded=1;size=0;arcSize=11;" vertex="1" parent="1">
          <mxGeometry x="312" y="301" width="160" height="40" as="geometry" />
        </mxCell>
        <mxCell id="mb2Tgb36mY0pT5_rwjz1-18" value="&lt;b&gt;&lt;font style=&quot;font-size: 17px;&quot;&gt;Feature Engineering&lt;/font&gt;&lt;/b&gt;" style="html=1;strokeWidth=2;shape=manualInput;whiteSpace=wrap;rounded=1;size=0;arcSize=11;" vertex="1" parent="1">
          <mxGeometry x="313" y="347" width="160" height="40" as="geometry" />
        </mxCell>
        <mxCell id="mb2Tgb36mY0pT5_rwjz1-19" value="&lt;b&gt;&lt;font style=&quot;font-size: 17px;&quot;&gt;Model Selection&lt;/font&gt;&lt;/b&gt;" style="html=1;strokeWidth=2;shape=manualInput;whiteSpace=wrap;rounded=1;size=0;arcSize=11;" vertex="1" parent="1">
          <mxGeometry x="313" y="393" width="160" height="40" as="geometry" />
        </mxCell>
        <mxCell id="mb2Tgb36mY0pT5_rwjz1-20" value="&lt;b&gt;&lt;font style=&quot;font-size: 17px;&quot;&gt;Model Training &amp;amp; Evaluation&lt;/font&gt;&lt;/b&gt;" style="html=1;strokeWidth=2;shape=manualInput;whiteSpace=wrap;rounded=1;size=0;arcSize=11;" vertex="1" parent="1">
          <mxGeometry x="314" y="439" width="160" height="40" as="geometry" />
        </mxCell>
        <mxCell id="mb2Tgb36mY0pT5_rwjz1-21" value="&lt;b&gt;&lt;font style=&quot;font-size: 17px;&quot;&gt;Hypothesis&lt;/font&gt;&lt;/b&gt;" style="html=1;strokeWidth=2;shape=manualInput;whiteSpace=wrap;rounded=1;size=0;arcSize=11;" vertex="1" parent="1">
          <mxGeometry x="312" y="70" width="160" height="40" as="geometry" />
        </mxCell>
        <mxCell id="mb2Tgb36mY0pT5_rwjz1-22" value="&lt;b&gt;&lt;font style=&quot;font-size: 17px;&quot;&gt;Data Collection&lt;/font&gt;&lt;/b&gt;" style="html=1;strokeWidth=2;shape=manualInput;whiteSpace=wrap;rounded=1;size=0;arcSize=11;" vertex="1" parent="1">
          <mxGeometry x="313" y="116" width="160" height="40" as="geometry" />
        </mxCell>
        <mxCell id="mb2Tgb36mY0pT5_rwjz1-25" value="&lt;b&gt;&lt;font style=&quot;font-size: 17px;&quot;&gt;Data Cleaning&lt;/font&gt;&lt;/b&gt;" style="html=1;strokeWidth=2;shape=manualInput;whiteSpace=wrap;rounded=1;size=0;arcSize=11;" vertex="1" parent="1">
          <mxGeometry x="313" y="162" width="160" height="40" as="geometry" />
        </mxCell>
        <mxCell id="mb2Tgb36mY0pT5_rwjz1-26" value="&lt;b&gt;&lt;font style=&quot;font-size: 17px;&quot;&gt;Text Preprocessing&lt;/font&gt;&lt;/b&gt;" style="html=1;strokeWidth=2;shape=manualInput;whiteSpace=wrap;rounded=1;size=0;arcSize=11;" vertex="1" parent="1">
          <mxGeometry x="313" y="208" width="160" height="40" as="geometry" />
        </mxCell>
        <mxCell id="mb2Tgb36mY0pT5_rwjz1-27" value="&lt;b&gt;&lt;font style=&quot;font-size: 17px;&quot;&gt;Fine tuning&lt;/font&gt;&lt;/b&gt;" style="html=1;strokeWidth=2;shape=manualInput;whiteSpace=wrap;rounded=1;size=0;arcSize=11;" vertex="1" parent="1">
          <mxGeometry x="315" y="490" width="160" height="40" as="geometry" />
        </mxCell>
        <mxCell id="mb2Tgb36mY0pT5_rwjz1-28" value="&lt;span style=&quot;font-size: 17px;&quot;&gt;&lt;b&gt;Blockchain integration&lt;/b&gt;&lt;/span&gt;" style="html=1;strokeWidth=2;shape=manualInput;whiteSpace=wrap;rounded=1;size=0;arcSize=11;" vertex="1" parent="1">
          <mxGeometry x="315" y="540" width="160" height="40" as="geometry" />
        </mxCell>
        <mxCell id="mb2Tgb36mY0pT5_rwjz1-29" value="&lt;b&gt;&lt;font style=&quot;font-size: 17px;&quot;&gt;Deployment&lt;/font&gt;&lt;/b&gt;" style="html=1;strokeWidth=2;shape=manualInput;whiteSpace=wrap;rounded=1;size=0;arcSize=11;" vertex="1" parent="1">
          <mxGeometry x="315" y="588" width="160" height="40" as="geometry" />
        </mxCell>
      </root>
    </mxGraphModel>
  </diagram>
</mxfile>
